<?xml version="1.0" standalone="no"?>
<!DOCTYPE svg PUBLIC "-//W3C//DTD SVG 20010904//EN"
 "http://www.w3.org/TR/2001/REC-SVG-20010904/DTD/svg10.dtd">
<svg version="1.0" xmlns="http://www.w3.org/2000/svg"
 width="92.000000pt" height="92.000000pt" viewBox="0 0 92.000000 92.000000"
 preserveAspectRatio="xMidYMid meet">
<metadata>
Created by potrace 1.11, written by Peter Selinger 2001-2013
</metadata>
<g transform="translate(0.000000,92.000000) scale(0.100000,-0.100000)"
fill="#000000" stroke="none">
<path d="M283 668 c-140 -139 -261 -266 -270 -282 -20 -39 -12 -95 20 -138 20
-26 23 -38 16 -57 -31 -79 54 -166 138 -142 25 7 35 5 59 -15 34 -27 82 -39
121 -29 32 7 515 481 540 529 20 39 12 95 -20 138 -20 26 -23 38 -16 57 31 81
-62 172 -144 142 -15 -6 -33 0 -66 21 -30 19 -58 28 -85 28 -38 0 -47 -8 -293
-252z m366 191 l27 -20 -294 -295 c-162 -161 -297 -294 -301 -294 -3 0 -13 11
-23 23 -16 23 -21 45 -19 82 1 20 455 484 505 515 33 21 67 18 105 -11z m168
-41 c15 -14 23 -33 23 -56 0 -31 -25 -59 -324 -358 -294 -294 -327 -324 -357
-324 -45 0 -79 33 -79 78 0 31 25 59 324 358 294 293 327 324 357 324 20 0 42
-9 56 -22z m45 -171 c16 -23 21 -45 19 -82 -1 -24 -486 -511 -520 -523 -30
-10 -57 -4 -91 20 l-24 18 44 46 c132 136 544 544 549 544 3 0 13 -11 23 -23z"/>
<path d="M688 683 c-9 -15 -43 -41 -75 -58 -50 -26 -62 -38 -86 -87 -24 -46
-37 -60 -74 -78 -46 -22 -82 -55 -83 -77 0 -21 -54 -76 -89 -90 -41 -17 -70
-50 -70 -78 0 -15 4 -12 16 12 11 21 32 40 62 54 51 24 63 36 93 97 17 35 32
49 74 69 45 21 57 33 81 81 25 49 38 61 87 87 34 18 66 43 78 63 11 17 16 32
11 32 -4 0 -16 -12 -25 -27z"/>
</g>
</svg>
